<svg width="226" height="72" viewBox="0 0 226 72" fill="none" xmlns="http://www.w3.org/2000/svg">
<path d="M9.34429 42.7144L17.35 24.2754H20.0358V29.492L14.3543 42.7144H18.5896V40.3385C18.5896 39.76 19.5537 39.7187 20.0358 39.7704V47.053C18.7136 47.053 18.5207 46.6054 18.5896 46.3816V44.3156H13.5796L1.1836 71.9999H0.71875L3.86939 62.4447C3.86939 62.4447 1.0803 61.36 2.01 59.0358C2.93969 56.7115 8.51789 44.3156 8.51789 44.3156H2.01V42.7144H9.34429Z" fill="#FF9900"/>
<path d="M30.211 42.7144L22.2053 24.2754H19.5195V29.492L25.201 42.7144H20.9657V40.3385C20.9657 39.76 20.0016 39.7187 19.5195 39.7704V47.053C20.8418 47.053 21.0346 46.6054 20.9657 46.3816V44.3156H25.9758L38.3717 71.9999H38.8366L35.6859 62.4447C35.6859 62.4447 38.475 61.36 37.5453 59.0358C36.6156 56.7115 31.0374 44.3156 31.0374 44.3156H37.5453V42.7144H30.211Z" fill="#FF9900"/>
<path fill-rule="evenodd" clip-rule="evenodd" d="M19.83 21.5898C22.8537 21.5898 25.3049 19.1386 25.3049 16.1149C25.3049 13.0912 22.8537 10.64 19.83 10.64C16.8063 10.64 14.3551 13.0912 14.3551 16.1149C14.3551 19.1386 16.8063 21.5898 19.83 21.5898ZM19.83 24.5855C24.5081 24.5855 28.3006 20.7931 28.3006 16.1149C28.3006 11.4367 24.5081 7.64429 19.83 7.64429C15.1518 7.64429 11.3594 11.4367 11.3594 16.1149C11.3594 20.7931 15.1518 24.5855 19.83 24.5855Z" fill="black"/>
<path d="M18.2803 0H21.3793V8.16069H18.2803V0Z" fill="black"/>
<path d="M56.586 46.2H60.338V46.732C60.1793 46.8347 59.9973 46.9233 59.792 46.998C59.5867 47.0633 59.4 47.11 59.232 47.138L56.572 50.512C56.7867 50.8107 57.0387 51.1513 57.328 51.534C57.6173 51.9073 57.9253 52.2993 58.252 52.71C58.5787 53.1113 58.9147 53.522 59.26 53.942C59.6053 54.3527 59.9413 54.7447 60.268 55.118L60.94 55.524V56H58.504L57.944 55.608C57.72 55.328 57.482 55.02 57.23 54.684C56.9873 54.3387 56.7447 53.984 56.502 53.62C56.2593 53.2467 56.0213 52.8733 55.788 52.5C55.5547 52.1267 55.3353 51.7627 55.13 51.408H54.528V55.062C54.7333 55.0993 54.92 55.1553 55.088 55.23C55.256 55.3047 55.4007 55.384 55.522 55.468V56H51.28V55.468C51.4667 55.3747 51.658 55.2953 51.854 55.23C52.05 55.1553 52.2413 55.0993 52.428 55.062V47.138C52.2133 47.11 52.0033 47.0587 51.798 46.984C51.602 46.9093 51.4293 46.8253 51.28 46.732V46.2H55.522V46.732C55.4007 46.8067 55.2513 46.8813 55.074 46.956C54.906 47.0307 54.724 47.0913 54.528 47.138V50.694L55.354 50.498L57.608 47.138C57.4213 47.1007 57.2347 47.0447 57.048 46.97C56.8707 46.886 56.7167 46.8067 56.586 46.732V46.2ZM67.5195 53.97C67.5195 54.1753 67.5195 54.3527 67.5195 54.502C67.5288 54.6513 67.5428 54.81 67.5615 54.978L68.5275 55.118V55.608C68.4155 55.664 68.2615 55.72 68.0655 55.776C67.8788 55.832 67.6781 55.888 67.4635 55.944C67.2581 55.9907 67.0528 56.028 66.8475 56.056C66.6421 56.0933 66.4601 56.1213 66.3015 56.14H65.8255C65.7321 55.9253 65.6761 55.7107 65.6575 55.496C65.6388 55.2813 65.6248 55.02 65.6155 54.712H65.5455C65.4988 54.8987 65.4195 55.0807 65.3075 55.258C65.1955 55.426 65.0508 55.58 64.8735 55.72C64.7055 55.8507 64.5048 55.958 64.2715 56.042C64.0381 56.126 63.7768 56.168 63.4875 56.168C63.1795 56.168 62.8948 56.1213 62.6335 56.028C62.3721 55.9347 62.1435 55.804 61.9475 55.636C61.7515 55.468 61.5975 55.2673 61.4855 55.034C61.3735 54.7913 61.3175 54.5207 61.3175 54.222C61.3175 53.802 61.3968 53.4567 61.5555 53.186C61.7141 52.9153 61.9615 52.696 62.2975 52.528C62.6428 52.3507 63.0815 52.22 63.6135 52.136C64.1548 52.052 64.8081 51.9913 65.5735 51.954C65.6481 51.1513 65.6155 50.5633 65.4755 50.19C65.3355 49.8167 65.0321 49.63 64.5655 49.63C64.2761 49.63 64.0101 49.6767 63.7675 49.77L63.1095 51.45H62.4935C62.4188 51.338 62.3441 51.212 62.2695 51.072C62.2041 50.9227 62.1388 50.7687 62.0735 50.61C62.0175 50.442 61.9661 50.274 61.9195 50.106C61.8821 49.938 61.8541 49.7747 61.8355 49.616C62.1901 49.3733 62.6475 49.182 63.2075 49.042C63.7675 48.902 64.3601 48.832 64.9855 48.832C65.5175 48.832 65.9515 48.8927 66.2875 49.014C66.6235 49.126 66.8848 49.2847 67.0715 49.49C67.2675 49.686 67.4028 49.9193 67.4775 50.19C67.5521 50.4607 67.5895 50.75 67.5895 51.058C67.5895 51.618 67.5755 52.1267 67.5475 52.584C67.5288 53.032 67.5195 53.494 67.5195 53.97ZM64.3695 55.048C64.5655 55.048 64.7335 55.0107 64.8735 54.936C65.0135 54.8613 65.1301 54.7727 65.2235 54.67C65.3261 54.5673 65.4008 54.4553 65.4475 54.334C65.5035 54.2127 65.5455 54.1053 65.5735 54.012V52.612C65.1348 52.6213 64.7755 52.6493 64.4955 52.696C64.2155 52.7427 63.9961 52.822 63.8375 52.934C63.6788 53.0367 63.5668 53.172 63.5015 53.34C63.4455 53.4987 63.4175 53.6947 63.4175 53.928C63.4175 54.2827 63.5015 54.558 63.6695 54.754C63.8375 54.95 64.0708 55.048 64.3695 55.048ZM70.2444 56L69.4884 58.072H68.9424C68.8864 57.6147 68.8351 57.12 68.7884 56.588C68.7511 56.0653 68.7324 55.5753 68.7324 55.118H69.7544C69.8664 54.9873 69.9924 54.7913 70.1324 54.53C70.2724 54.2687 70.4031 53.9327 70.5244 53.522C70.6551 53.102 70.7624 52.6073 70.8464 52.038C70.9398 51.4593 70.9864 50.7873 70.9864 50.022C70.7904 49.9753 70.5991 49.91 70.4124 49.826C70.2351 49.742 70.0811 49.6487 69.9504 49.546V49H76.6004V49.546C76.3484 49.714 76.0404 49.826 75.6764 49.882V55.118H76.9784C76.9878 55.5753 76.9691 56.0653 76.9224 56.588C76.8851 57.12 76.8338 57.6147 76.7684 58.072H76.2224L75.4664 56H70.2444ZM72.0084 49.882C72.0084 50.666 71.9664 51.3473 71.8824 51.926C71.7984 52.5047 71.6958 53.004 71.5744 53.424C71.4531 53.844 71.3271 54.194 71.1964 54.474C71.0658 54.7447 70.9538 54.9593 70.8604 55.118H73.6604V49.882H72.0084ZM83.789 53.97C83.789 54.1753 83.789 54.3527 83.789 54.502C83.7983 54.6513 83.8123 54.81 83.831 54.978L84.797 55.118V55.608C84.685 55.664 84.531 55.72 84.335 55.776C84.1483 55.832 83.9477 55.888 83.733 55.944C83.5277 55.9907 83.3223 56.028 83.117 56.056C82.9117 56.0933 82.7297 56.1213 82.571 56.14H82.095C82.0017 55.9253 81.9457 55.7107 81.927 55.496C81.9083 55.2813 81.8943 55.02 81.885 54.712H81.815C81.7683 54.8987 81.689 55.0807 81.577 55.258C81.465 55.426 81.3203 55.58 81.143 55.72C80.975 55.8507 80.7743 55.958 80.541 56.042C80.3077 56.126 80.0463 56.168 79.757 56.168C79.449 56.168 79.1643 56.1213 78.903 56.028C78.6417 55.9347 78.413 55.804 78.217 55.636C78.021 55.468 77.867 55.2673 77.755 55.034C77.643 54.7913 77.587 54.5207 77.587 54.222C77.587 53.802 77.6663 53.4567 77.825 53.186C77.9837 52.9153 78.231 52.696 78.567 52.528C78.9123 52.3507 79.351 52.22 79.883 52.136C80.4243 52.052 81.0777 51.9913 81.843 51.954C81.9177 51.1513 81.885 50.5633 81.745 50.19C81.605 49.8167 81.3017 49.63 80.835 49.63C80.5457 49.63 80.2797 49.6767 80.037 49.77L79.379 51.45H78.763C78.6883 51.338 78.6137 51.212 78.539 51.072C78.4737 50.9227 78.4083 50.7687 78.343 50.61C78.287 50.442 78.2357 50.274 78.189 50.106C78.1517 49.938 78.1237 49.7747 78.105 49.616C78.4597 49.3733 78.917 49.182 79.477 49.042C80.037 48.902 80.6297 48.832 81.255 48.832C81.787 48.832 82.221 48.8927 82.557 49.014C82.893 49.126 83.1543 49.2847 83.341 49.49C83.537 49.686 83.6723 49.9193 83.747 50.19C83.8217 50.4607 83.859 50.75 83.859 51.058C83.859 51.618 83.845 52.1267 83.817 52.584C83.7983 53.032 83.789 53.494 83.789 53.97ZM80.639 55.048C80.835 55.048 81.003 55.0107 81.143 54.936C81.283 54.8613 81.3997 54.7727 81.493 54.67C81.5957 54.5673 81.6703 54.4553 81.717 54.334C81.773 54.2127 81.815 54.1053 81.843 54.012V52.612C81.4043 52.6213 81.045 52.6493 80.765 52.696C80.485 52.7427 80.2657 52.822 80.107 52.934C79.9483 53.0367 79.8363 53.172 79.771 53.34C79.715 53.4987 79.687 53.6947 79.687 53.928C79.687 54.2827 79.771 54.558 79.939 54.754C80.107 54.95 80.3403 55.048 80.639 55.048ZM91.386 54.866C91.3206 55.0527 91.2133 55.2253 91.064 55.384C90.9146 55.5333 90.7326 55.6687 90.518 55.79C90.3126 55.9113 90.0746 56.0047 89.804 56.07C89.5426 56.1353 89.2673 56.168 88.978 56.168C88.362 56.168 87.83 56.084 87.382 55.916C86.9433 55.7387 86.5793 55.4913 86.29 55.174C86.0006 54.8473 85.786 54.46 85.646 54.012C85.506 53.5547 85.436 53.0507 85.436 52.5C85.436 51.3147 85.758 50.4093 86.402 49.784C87.0553 49.1493 87.9793 48.832 89.174 48.832C89.6313 48.832 90.0513 48.8833 90.434 48.986C90.8166 49.0793 91.134 49.1913 91.386 49.322C91.3673 49.4807 91.3393 49.658 91.302 49.854C91.274 50.0407 91.2366 50.232 91.19 50.428C91.1526 50.6147 91.106 50.8013 91.05 50.988C90.994 51.1653 90.938 51.3147 90.882 51.436H90.196L89.608 49.77C89.5426 49.7233 89.4726 49.6907 89.398 49.672C89.3233 49.644 89.2113 49.63 89.062 49.63C88.8193 49.63 88.6093 49.6767 88.432 49.77C88.2546 49.854 88.1006 50.0033 87.97 50.218C87.8486 50.4327 87.7553 50.7173 87.69 51.072C87.634 51.4267 87.606 51.8653 87.606 52.388C87.606 52.7707 87.648 53.1253 87.732 53.452C87.816 53.7693 87.942 54.0493 88.11 54.292C88.2873 54.5253 88.5066 54.712 88.768 54.852C89.0293 54.9827 89.3373 55.048 89.692 55.048C90.0186 55.048 90.3033 55.0013 90.546 54.908C90.7886 54.8147 90.994 54.7027 91.162 54.572L91.386 54.866ZM97.6062 56H93.6302V55.454C93.7702 55.3793 93.9289 55.314 94.1062 55.258C94.2836 55.202 94.4516 55.1553 94.6102 55.118V49.798H93.5882L92.9722 51.73H92.3842C92.3376 51.534 92.2909 51.3147 92.2442 51.072C92.2069 50.8293 92.1742 50.5867 92.1462 50.344C92.1182 50.092 92.0902 49.8493 92.0622 49.616C92.0436 49.3827 92.0342 49.1773 92.0342 49H99.2022C99.2022 49.168 99.1929 49.3687 99.1742 49.602C99.1556 49.8353 99.1276 50.078 99.0902 50.33C99.0622 50.5727 99.0249 50.82 98.9782 51.072C98.9409 51.3147 98.8989 51.534 98.8522 51.73H98.2642L97.6482 49.798H96.6262V55.118C96.8409 55.174 97.0229 55.2253 97.1722 55.272C97.3216 55.3187 97.4662 55.3793 97.6062 55.454V56ZM103.57 58.8H99.7061V58.254C100.023 58.1047 100.331 57.9927 100.63 57.918V49.994L99.7061 49.882V49.336C99.8554 49.2707 100.037 49.21 100.252 49.154C100.476 49.098 100.705 49.0513 100.938 49.014C101.171 48.9673 101.395 48.93 101.61 48.902C101.834 48.874 102.021 48.8507 102.17 48.832H102.646V50.4H102.66C102.819 49.952 103.066 49.5787 103.402 49.28C103.747 48.9813 104.223 48.832 104.83 48.832C105.241 48.832 105.609 48.902 105.936 49.042C106.272 49.1727 106.552 49.3827 106.776 49.672C107.009 49.952 107.187 50.316 107.308 50.764C107.439 51.2027 107.504 51.73 107.504 52.346C107.504 52.934 107.42 53.466 107.252 53.942C107.093 54.418 106.86 54.8193 106.552 55.146C106.253 55.4727 105.885 55.7247 105.446 55.902C105.017 56.0793 104.527 56.168 103.976 56.168C103.659 56.168 103.407 56.1447 103.22 56.098C103.043 56.0607 102.851 55.9907 102.646 55.888V57.918C102.795 57.9367 102.945 57.9693 103.094 58.016C103.243 58.072 103.402 58.1513 103.57 58.254V58.8ZM104.018 49.952C103.701 49.952 103.416 50.064 103.164 50.288C102.921 50.512 102.749 50.8573 102.646 51.324V55.048C102.795 55.16 102.954 55.244 103.122 55.3C103.29 55.3467 103.509 55.37 103.78 55.37C104.312 55.37 104.704 55.1133 104.956 54.6C105.208 54.0867 105.334 53.3353 105.334 52.346C105.334 51.5807 105.236 50.9927 105.04 50.582C104.853 50.162 104.513 49.952 104.018 49.952ZM108.377 52.5C108.377 51.9307 108.461 51.422 108.629 50.974C108.807 50.5167 109.054 50.1293 109.371 49.812C109.698 49.4947 110.09 49.252 110.547 49.084C111.005 48.916 111.523 48.832 112.101 48.832C112.755 48.832 113.315 48.9253 113.781 49.112C114.257 49.2893 114.645 49.5413 114.943 49.868C115.251 50.1853 115.475 50.5727 115.615 51.03C115.755 51.478 115.825 51.968 115.825 52.5C115.825 53.0693 115.741 53.5827 115.573 54.04C115.405 54.488 115.158 54.8707 114.831 55.188C114.514 55.5053 114.122 55.748 113.655 55.916C113.198 56.084 112.68 56.168 112.101 56.168C111.467 56.168 110.916 56.0793 110.449 55.902C109.983 55.7153 109.595 55.4633 109.287 55.146C108.979 54.8193 108.751 54.432 108.601 53.984C108.452 53.5267 108.377 53.032 108.377 52.5ZM110.547 52.5C110.547 52.92 110.571 53.3073 110.617 53.662C110.673 54.0073 110.767 54.3013 110.897 54.544C111.028 54.7867 111.205 54.978 111.429 55.118C111.653 55.2487 111.943 55.314 112.297 55.314C112.503 55.314 112.689 55.2673 112.857 55.174C113.025 55.0713 113.17 54.9127 113.291 54.698C113.413 54.474 113.501 54.1847 113.557 53.83C113.623 53.466 113.655 53.0227 113.655 52.5C113.655 52.0707 113.627 51.6833 113.571 51.338C113.525 50.9927 113.436 50.6987 113.305 50.456C113.184 50.2133 113.016 50.0267 112.801 49.896C112.587 49.756 112.316 49.686 111.989 49.686C111.747 49.686 111.537 49.7373 111.359 49.84C111.182 49.9333 111.033 50.092 110.911 50.316C110.79 50.5307 110.697 50.82 110.631 51.184C110.575 51.5387 110.547 51.9773 110.547 52.5ZM123.802 53.956C123.802 54.3293 123.723 54.6513 123.564 54.922C123.405 55.1833 123.186 55.398 122.906 55.566C122.626 55.734 122.295 55.86 121.912 55.944C121.539 56.0187 121.137 56.056 120.708 56.056C120.409 56.056 120.153 56.0513 119.938 56.042C119.723 56.042 119.537 56.0373 119.378 56.028C119.219 56.0187 119.079 56.0093 118.958 56C118.846 56 118.739 56 118.636 56H116.662V55.454C116.951 55.3047 117.259 55.1927 117.586 55.118V49.882C117.231 49.8167 116.923 49.7047 116.662 49.546V49H118.552C119 49 119.397 48.9907 119.742 48.972C120.087 48.9533 120.433 48.944 120.778 48.944C121.665 48.944 122.337 49.07 122.794 49.322C123.261 49.5647 123.494 49.994 123.494 50.61C123.494 50.834 123.443 51.0347 123.34 51.212C123.247 51.3893 123.116 51.5433 122.948 51.674C122.789 51.8047 122.612 51.912 122.416 51.996C122.22 52.08 122.024 52.1407 121.828 52.178C122.089 52.1967 122.337 52.248 122.57 52.332C122.813 52.416 123.023 52.5327 123.2 52.682C123.387 52.8313 123.531 53.0133 123.634 53.228C123.746 53.4333 123.802 53.676 123.802 53.956ZM119.602 55.202C119.733 55.23 119.873 55.2487 120.022 55.258C120.181 55.258 120.316 55.258 120.428 55.258C120.848 55.258 121.165 55.1507 121.38 54.936C121.595 54.7213 121.702 54.4087 121.702 53.998C121.702 53.5967 121.576 53.298 121.324 53.102C121.081 52.8967 120.759 52.794 120.358 52.794H119.602V55.202ZM119.602 52.192L120.848 52.052C120.997 51.9587 121.142 51.8093 121.282 51.604C121.422 51.3893 121.492 51.128 121.492 50.82C121.492 50.1013 121.077 49.742 120.246 49.742C120.143 49.742 120.036 49.7467 119.924 49.756C119.812 49.756 119.705 49.77 119.602 49.798V52.192ZM127.627 51.786C127.786 51.7673 127.982 51.744 128.215 51.716C128.458 51.688 128.766 51.674 129.139 51.674C129.867 51.674 130.455 51.8513 130.903 52.206C131.361 52.5513 131.589 53.074 131.589 53.774C131.589 54.1473 131.515 54.4787 131.365 54.768C131.225 55.048 131.025 55.286 130.763 55.482C130.511 55.6687 130.208 55.8133 129.853 55.916C129.508 56.0093 129.13 56.056 128.719 56.056C128.589 56.056 128.407 56.0513 128.173 56.042C127.949 56.042 127.702 56.0373 127.431 56.028C127.17 56.0187 126.909 56.0093 126.647 56C126.386 56 126.167 56 125.989 56H124.687V55.454C124.837 55.37 124.986 55.3047 125.135 55.258C125.294 55.2113 125.453 55.1647 125.611 55.118V49.882C125.434 49.854 125.271 49.812 125.121 49.756C124.972 49.6907 124.827 49.6207 124.687 49.546V49H128.467V49.546C128.243 49.6767 127.963 49.7887 127.627 49.882V51.786ZM127.627 55.202C127.721 55.2207 127.819 55.2347 127.921 55.244C128.033 55.2533 128.141 55.258 128.243 55.258C128.617 55.258 128.901 55.146 129.097 54.922C129.293 54.6887 129.391 54.3013 129.391 53.76C129.391 53.256 129.284 52.9153 129.069 52.738C128.864 52.5607 128.612 52.472 128.313 52.472C128.211 52.472 128.099 52.4767 127.977 52.486C127.856 52.4953 127.739 52.514 127.627 52.542V55.202ZM135.495 56H131.785V55.454C131.897 55.3887 132.014 55.328 132.135 55.272C132.257 55.216 132.397 55.1647 132.555 55.118V49.882C132.201 49.8167 131.921 49.7047 131.715 49.546V49H135.495V49.546C135.383 49.6207 135.248 49.686 135.089 49.742C134.931 49.7887 134.758 49.8353 134.571 49.882V55.118C134.73 55.1647 134.884 55.216 135.033 55.272C135.183 55.3187 135.337 55.3793 135.495 55.454V56ZM142.706 54.824C142.632 54.9827 142.51 55.146 142.342 55.314C142.184 55.4727 141.983 55.6173 141.74 55.748C141.507 55.8693 141.232 55.9673 140.914 56.042C140.606 56.126 140.27 56.168 139.906 56.168C139.328 56.168 138.814 56.084 138.366 55.916C137.918 55.7387 137.545 55.4913 137.246 55.174C136.948 54.8473 136.719 54.46 136.56 54.012C136.411 53.564 136.336 53.06 136.336 52.5C136.336 51.3053 136.649 50.3953 137.274 49.77C137.9 49.1447 138.768 48.832 139.878 48.832C140.354 48.832 140.798 48.8973 141.208 49.028C141.628 49.1587 141.974 49.3733 142.244 49.672C142.524 49.9707 142.716 50.3627 142.818 50.848C142.93 51.3333 142.926 51.926 142.804 52.626H138.506C138.516 53.3633 138.702 53.9513 139.066 54.39C139.44 54.8287 139.986 55.048 140.704 55.048C141.012 55.048 141.33 55.0013 141.656 54.908C141.992 54.8147 142.254 54.6933 142.44 54.544L142.706 54.824ZM139.822 49.63C139.636 49.63 139.468 49.6627 139.318 49.728C139.178 49.7933 139.052 49.9147 138.94 50.092C138.838 50.26 138.754 50.4933 138.688 50.792C138.623 51.0813 138.576 51.45 138.548 51.898H140.802C140.868 51.17 140.826 50.61 140.676 50.218C140.527 49.826 140.242 49.63 139.822 49.63ZM151.353 58.8H147.489V58.254C147.807 58.1047 148.115 57.9927 148.413 57.918V49.994L147.489 49.882V49.336C147.639 49.2707 147.821 49.21 148.035 49.154C148.259 49.098 148.488 49.0513 148.721 49.014C148.955 48.9673 149.179 48.93 149.393 48.902C149.617 48.874 149.804 48.8507 149.953 48.832H150.429V50.4H150.443C150.602 49.952 150.849 49.5787 151.185 49.28C151.531 48.9813 152.007 48.832 152.613 48.832C153.024 48.832 153.393 48.902 153.719 49.042C154.055 49.1727 154.335 49.3827 154.559 49.672C154.793 49.952 154.97 50.316 155.091 50.764C155.222 51.2027 155.287 51.73 155.287 52.346C155.287 52.934 155.203 53.466 155.035 53.942C154.877 54.418 154.643 54.8193 154.335 55.146C154.037 55.4727 153.668 55.7247 153.229 55.902C152.8 56.0793 152.31 56.168 151.759 56.168C151.442 56.168 151.19 56.1447 151.003 56.098C150.826 56.0607 150.635 55.9907 150.429 55.888V57.918C150.579 57.9367 150.728 57.9693 150.877 58.016C151.027 58.072 151.185 58.1513 151.353 58.254V58.8ZM151.801 49.952C151.484 49.952 151.199 50.064 150.947 50.288C150.705 50.512 150.532 50.8573 150.429 51.324V55.048C150.579 55.16 150.737 55.244 150.905 55.3C151.073 55.3467 151.293 55.37 151.563 55.37C152.095 55.37 152.487 55.1133 152.739 54.6C152.991 54.0867 153.117 53.3353 153.117 52.346C153.117 51.5807 153.019 50.9927 152.823 50.582C152.637 50.162 152.296 49.952 151.801 49.952ZM162.307 53.97C162.307 54.1753 162.307 54.3527 162.307 54.502C162.316 54.6513 162.33 54.81 162.349 54.978L163.315 55.118V55.608C163.203 55.664 163.049 55.72 162.853 55.776C162.666 55.832 162.465 55.888 162.251 55.944C162.045 55.9907 161.84 56.028 161.635 56.056C161.429 56.0933 161.247 56.1213 161.089 56.14H160.613C160.519 55.9253 160.463 55.7107 160.445 55.496C160.426 55.2813 160.412 55.02 160.403 54.712H160.333C160.286 54.8987 160.207 55.0807 160.095 55.258C159.983 55.426 159.838 55.58 159.661 55.72C159.493 55.8507 159.292 55.958 159.059 56.042C158.825 56.126 158.564 56.168 158.275 56.168C157.967 56.168 157.682 56.1213 157.421 56.028C157.159 55.9347 156.931 55.804 156.735 55.636C156.539 55.468 156.385 55.2673 156.273 55.034C156.161 54.7913 156.105 54.5207 156.105 54.222C156.105 53.802 156.184 53.4567 156.343 53.186C156.501 52.9153 156.749 52.696 157.085 52.528C157.43 52.3507 157.869 52.22 158.401 52.136C158.942 52.052 159.595 51.9913 160.361 51.954C160.435 51.1513 160.403 50.5633 160.263 50.19C160.123 49.8167 159.819 49.63 159.353 49.63C159.063 49.63 158.797 49.6767 158.555 49.77L157.897 51.45H157.281C157.206 51.338 157.131 51.212 157.057 51.072C156.991 50.9227 156.926 50.7687 156.861 50.61C156.805 50.442 156.753 50.274 156.707 50.106C156.669 49.938 156.641 49.7747 156.623 49.616C156.977 49.3733 157.435 49.182 157.995 49.042C158.555 48.902 159.147 48.832 159.773 48.832C160.305 48.832 160.739 48.8927 161.075 49.014C161.411 49.126 161.672 49.2847 161.859 49.49C162.055 49.686 162.19 49.9193 162.265 50.19C162.339 50.4607 162.377 50.75 162.377 51.058C162.377 51.618 162.363 52.1267 162.335 52.584C162.316 53.032 162.307 53.494 162.307 53.97ZM159.157 55.048C159.353 55.048 159.521 55.0107 159.661 54.936C159.801 54.8613 159.917 54.7727 160.011 54.67C160.113 54.5673 160.188 54.4553 160.235 54.334C160.291 54.2127 160.333 54.1053 160.361 54.012V52.612C159.922 52.6213 159.563 52.6493 159.283 52.696C159.003 52.7427 158.783 52.822 158.625 52.934C158.466 53.0367 158.354 53.172 158.289 53.34C158.233 53.4987 158.205 53.6947 158.205 53.928C158.205 54.2827 158.289 54.558 158.457 54.754C158.625 54.95 158.858 55.048 159.157 55.048ZM163.954 52.206C163.954 51.0393 164.061 50.064 164.276 49.28C164.5 48.4867 164.836 47.852 165.284 47.376C165.732 46.8907 166.292 46.5453 166.964 46.34C167.645 46.1347 168.443 46.032 169.358 46.032L170.268 45.332H170.814C170.814 45.5093 170.8 45.7147 170.772 45.948C170.753 46.172 170.72 46.396 170.674 46.62C170.636 46.844 170.594 47.0493 170.548 47.236C170.501 47.4227 170.459 47.5627 170.422 47.656C169.442 47.656 168.611 47.6887 167.93 47.754C167.258 47.8193 166.702 47.964 166.264 48.188C165.834 48.412 165.508 48.7387 165.284 49.168C165.06 49.588 164.906 50.162 164.822 50.89H164.892C165.032 50.6473 165.209 50.4187 165.424 50.204C165.648 49.98 165.895 49.7887 166.166 49.63C166.446 49.462 166.74 49.3313 167.048 49.238C167.365 49.1447 167.692 49.098 168.028 49.098C169.045 49.098 169.838 49.378 170.408 49.938C170.977 50.4887 171.262 51.3567 171.262 52.542C171.262 53.0647 171.178 53.55 171.01 53.998C170.842 54.4367 170.594 54.8193 170.268 55.146C169.95 55.4633 169.554 55.7153 169.078 55.902C168.602 56.0793 168.06 56.168 167.454 56.168C166.922 56.168 166.441 56.0793 166.012 55.902C165.582 55.7247 165.214 55.468 164.906 55.132C164.598 54.796 164.36 54.3853 164.192 53.9C164.033 53.4053 163.954 52.8407 163.954 52.206ZM166.124 52.332C166.124 52.92 166.156 53.41 166.222 53.802C166.296 54.1847 166.399 54.4927 166.53 54.726C166.67 54.9593 166.833 55.1273 167.02 55.23C167.216 55.3233 167.44 55.37 167.692 55.37C168.158 55.37 168.504 55.1553 168.728 54.726C168.961 54.2873 169.078 53.592 169.078 52.64C169.078 51.6973 168.933 51.0347 168.644 50.652C168.354 50.2693 167.953 50.078 167.44 50.078C167.216 50.078 166.996 50.1387 166.782 50.26C166.576 50.3813 166.408 50.5213 166.278 50.68C166.175 51.1187 166.124 51.6693 166.124 52.332ZM172.129 52.5C172.129 51.9307 172.213 51.422 172.381 50.974C172.559 50.5167 172.806 50.1293 173.123 49.812C173.45 49.4947 173.842 49.252 174.299 49.084C174.757 48.916 175.275 48.832 175.853 48.832C176.507 48.832 177.067 48.9253 177.533 49.112C178.009 49.2893 178.397 49.5413 178.695 49.868C179.003 50.1853 179.227 50.5727 179.367 51.03C179.507 51.478 179.577 51.968 179.577 52.5C179.577 53.0693 179.493 53.5827 179.325 54.04C179.157 54.488 178.91 54.8707 178.583 55.188C178.266 55.5053 177.874 55.748 177.407 55.916C176.95 56.084 176.432 56.168 175.853 56.168C175.219 56.168 174.668 56.0793 174.201 55.902C173.735 55.7153 173.347 55.4633 173.039 55.146C172.731 54.8193 172.503 54.432 172.353 53.984C172.204 53.5267 172.129 53.032 172.129 52.5ZM174.299 52.5C174.299 52.92 174.323 53.3073 174.369 53.662C174.425 54.0073 174.519 54.3013 174.649 54.544C174.78 54.7867 174.957 54.978 175.181 55.118C175.405 55.2487 175.695 55.314 176.049 55.314C176.255 55.314 176.441 55.2673 176.609 55.174C176.777 55.0713 176.922 54.9127 177.043 54.698C177.165 54.474 177.253 54.1847 177.309 53.83C177.375 53.466 177.407 53.0227 177.407 52.5C177.407 52.0707 177.379 51.6833 177.323 51.338C177.277 50.9927 177.188 50.6987 177.057 50.456C176.936 50.2133 176.768 50.0267 176.553 49.896C176.339 49.756 176.068 49.686 175.741 49.686C175.499 49.686 175.289 49.7373 175.111 49.84C174.934 49.9333 174.785 50.092 174.663 50.316C174.542 50.5307 174.449 50.82 174.383 51.184C174.327 51.5387 174.299 51.9773 174.299 52.5ZM185.667 56H181.691V55.454C181.831 55.3793 181.989 55.314 182.167 55.258C182.344 55.202 182.512 55.1553 182.671 55.118V49.798H181.649L181.033 51.73H180.445C180.398 51.534 180.351 51.3147 180.305 51.072C180.267 50.8293 180.235 50.5867 180.207 50.344C180.179 50.092 180.151 49.8493 180.123 49.616C180.104 49.3827 180.095 49.1773 180.095 49H187.263C187.263 49.168 187.253 49.3687 187.235 49.602C187.216 49.8353 187.188 50.078 187.151 50.33C187.123 50.5727 187.085 50.82 187.039 51.072C187.001 51.3147 186.959 51.534 186.913 51.73H186.325L185.709 49.798H184.687V55.118C184.901 55.174 185.083 55.2253 185.233 55.272C185.382 55.3187 185.527 55.3793 185.667 55.454V56ZM190.819 51.786C190.977 51.7673 191.173 51.744 191.407 51.716C191.649 51.688 191.957 51.674 192.331 51.674C193.059 51.674 193.647 51.8513 194.095 52.206C194.552 52.5513 194.781 53.074 194.781 53.774C194.781 54.1473 194.706 54.4787 194.557 54.768C194.417 55.048 194.216 55.286 193.955 55.482C193.703 55.6687 193.399 55.8133 193.045 55.916C192.699 56.0093 192.321 56.056 191.911 56.056C191.78 56.056 191.598 56.0513 191.365 56.042C191.141 56.042 190.893 56.0373 190.623 56.028C190.361 56.0187 190.1 56.0093 189.839 56C189.577 56 189.358 56 189.181 56H187.879V55.454C188.028 55.37 188.177 55.3047 188.327 55.258C188.485 55.2113 188.644 55.1647 188.803 55.118V49.882C188.625 49.854 188.462 49.812 188.313 49.756C188.163 49.6907 188.019 49.6207 187.879 49.546V49H191.659V49.546C191.435 49.6767 191.155 49.7887 190.819 49.882V51.786ZM190.819 55.202C190.912 55.2207 191.01 55.2347 191.113 55.244C191.225 55.2533 191.332 55.258 191.435 55.258C191.808 55.258 192.093 55.146 192.289 54.922C192.485 54.6887 192.583 54.3013 192.583 53.76C192.583 53.256 192.475 52.9153 192.261 52.738C192.055 52.5607 191.803 52.472 191.505 52.472C191.402 52.472 191.29 52.4767 191.169 52.486C191.047 52.4953 190.931 52.514 190.819 52.542V55.202ZM198.687 56H194.977V55.454C195.089 55.3887 195.205 55.328 195.327 55.272C195.448 55.216 195.588 55.1647 195.747 55.118V49.882C195.392 49.8167 195.112 49.7047 194.907 49.546V49H198.687V49.546C198.575 49.6207 198.439 49.686 198.281 49.742C198.122 49.7887 197.949 49.8353 197.763 49.882V55.118C197.921 55.1647 198.075 55.216 198.225 55.272C198.374 55.3187 198.528 55.3793 198.687 55.454V56Z" fill="black"/>
<path d="M105.769 22C107.644 22 109.278 22.3583 110.669 23.0749C112.06 23.7915 113.124 24.8242 113.862 26.173C114.621 27.5008 115 29.0605 115 30.8519C115 32.6223 114.652 34.1819 113.957 35.5308C113.261 36.8586 112.281 37.8913 111.017 38.6289C109.752 39.3455 108.287 39.7038 106.622 39.7038C104.662 39.7038 103.124 39.1032 102.007 37.9018V45.5524H96V30.9151C96 29.1448 96.4004 27.5851 97.2013 26.2363C98.0022 24.8874 99.1403 23.8442 100.616 23.1065C102.091 22.3688 103.809 22 105.769 22ZM105.484 34.9301C106.559 34.9301 107.423 34.5613 108.077 33.8236C108.751 33.0649 109.088 32.0743 109.088 30.8519C109.088 29.6295 108.751 28.6495 108.077 27.9118C107.423 27.1531 106.559 26.7737 105.484 26.7737C104.409 26.7737 103.545 27.1531 102.892 27.9118C102.238 28.6495 101.912 29.6295 101.912 30.8519C101.912 32.0954 102.228 33.086 102.86 33.8236C103.514 34.5613 104.388 34.9301 105.484 34.9301Z" fill="black"/>
<path d="M137 22V40.0035H130.988V38.1101C130.323 38.8188 129.526 39.3613 128.596 39.7378C127.688 40.1142 126.714 40.3024 125.673 40.3024C123.326 40.3024 121.455 39.616 120.059 38.243C118.686 36.87 118 34.8106 118 32.0647V22H124.311V31.035C124.311 33.6259 125.319 34.9213 127.334 34.9213C128.33 34.9213 129.139 34.5781 129.759 33.8916C130.379 33.183 130.689 32.109 130.689 30.6696V22H137Z" fill="black"/>
<path d="M140 22H146.256V28.6533H152.711V22H159V39.9408H152.711V33.6516H146.256V39.9408H140V22Z" fill="black"/>
<path d="M84.4694 35.4099C85.3095 35.4099 86.0312 35.2914 86.6344 35.0544C87.2591 34.8175 87.8838 34.4297 88.5085 33.8912L91.7075 37.2517C90.0488 39.1474 87.5714 40.0952 84.2755 40.0952C82.229 40.0952 80.4303 39.7075 78.8793 38.932C77.3282 38.1565 76.1219 37.0794 75.2602 35.7007C74.4201 34.322 74 32.7602 74 31.0153C74 29.292 74.4201 27.7517 75.2602 26.3946C76.1003 25.0159 77.2528 23.9388 78.7177 23.1633C80.2041 22.3878 81.8628 22 83.6939 22C85.3957 22 86.9467 22.3554 88.3469 23.0663C89.7687 23.7557 90.8997 24.7789 91.7398 26.1361C92.5799 27.4717 93 29.0658 93 30.9184L80.4949 33.3095C81.1627 34.7098 82.4875 35.4099 84.4694 35.4099ZM83.7262 26.3622C82.6706 26.3622 81.809 26.6961 81.1412 27.3639C80.4734 28.0102 80.0964 28.9473 80.0102 30.1752L87.119 28.7857C86.9036 28.0533 86.4943 27.4717 85.8912 27.0408C85.288 26.5884 84.5663 26.3622 83.7262 26.3622Z" fill="black"/>
<path d="M67.4906 28.7359C69.8302 29.5157 71 31.1258 71 33.566C71 35.4025 70.283 36.8491 68.8491 37.9057C67.4151 38.9371 65.3019 39.4528 62.5094 39.4528H51V19H61.9811C64.6478 19 66.7107 19.4654 68.1698 20.3962C69.6541 21.327 70.3962 22.6352 70.3962 24.3208C70.3962 25.3019 70.1447 26.1698 69.6415 26.9245C69.1384 27.6792 68.4214 28.283 67.4906 28.7359ZM57.4151 27.2264H61.3396C63 27.2264 63.8302 26.6101 63.8302 25.3774C63.8302 24.195 63 23.6038 61.3396 23.6038H57.4151V27.2264ZM61.8679 34.8113C63.6038 34.8113 64.4717 34.1824 64.4717 32.9245C64.4717 31.6667 63.6289 31.0377 61.9434 31.0377H57.4151V34.8113H61.8679Z" fill="black"/>
</svg>
